<?xml version="1.0" standalone="no"?>
<!DOCTYPE svg PUBLIC "-//W3C//DTD SVG 20010904//EN"
 "http://www.w3.org/TR/2001/REC-SVG-20010904/DTD/svg10.dtd">
<svg version="1.0" xmlns="http://www.w3.org/2000/svg"
 width="2109.000000pt" height="2109.000000pt" viewBox="0 0 2109.000000 2109.000000"
 preserveAspectRatio="xMidYMid meet">
<metadata>
Created by potrace 1.16, written by Peter Selinger 2001-2019
</metadata>
<g transform="translate(0.000000,2109.000000) scale(0.100000,-0.100000)"
fill="#000000" stroke="none">
<path d="M10389 19586 c-2 -3 -67 -10 -144 -15 -77 -6 -156 -16 -176 -21 -20
-6 -72 -38 -115 -71 -113 -88 -122 -91 -324 -99 -207 -9 -260 -23 -459 -125
-122 -62 -131 -69 -271 -207 -80 -79 -161 -151 -180 -160 -19 -9 -82 -39 -140
-66 -131 -61 -166 -90 -202 -170 -16 -34 -61 -106 -100 -159 -115 -155 -174
-256 -227 -391 -27 -70 -70 -170 -94 -222 -89 -192 -111 -295 -111 -505 1
-123 6 -174 28 -280 45 -216 145 -475 196 -507 11 -7 20 -24 20 -38 0 -14 12
-61 27 -105 l27 -80 1 -320 c0 -360 5 -395 71 -461 46 -45 71 -57 189 -88 139
-37 194 -66 258 -137 30 -32 58 -59 63 -59 11 -1 43 -69 96 -205 46 -119 78
-267 78 -362 l0 -70 -57 -16 c-137 -39 -211 -110 -293 -282 -65 -136 -85 -203
-115 -385 -41 -246 -57 -295 -113 -342 -17 -14 -108 -52 -208 -88 -360 -127
-398 -145 -665 -320 -170 -112 -448 -250 -503 -250 -101 0 -254 -65 -376 -161
-153 -119 -269 -202 -320 -232 -77 -43 -171 -140 -203 -209 -63 -133 -181
-666 -192 -868 -8 -141 -25 -251 -61 -392 -34 -135 -76 -349 -70 -363 4 -11
-17 -219 -29 -292 -4 -21 -15 -72 -26 -113 -10 -41 -27 -131 -39 -200 -11 -69
-32 -161 -46 -205 -30 -92 -29 -161 4 -256 11 -30 27 -101 36 -158 9 -57 20
-110 25 -119 7 -12 -2 -26 -36 -57 -40 -36 -46 -46 -50 -92 -7 -66 26 -130
114 -224 90 -95 95 -108 71 -172 -13 -34 -22 -92 -27 -168 -7 -111 -10 -122
-48 -196 -43 -84 -67 -150 -135 -368 -58 -188 -59 -254 -5 -371 20 -45 37 -84
37 -87 0 -3 -19 -8 -42 -12 -72 -12 -115 -43 -143 -101 -28 -59 -30 -85 -14
-150 9 -34 23 -54 61 -87 107 -90 108 -91 108 -143 0 -45 32 -114 53 -114 22
0 -24 -132 -119 -337 -94 -203 -134 -344 -134 -466 0 -105 7 -123 83 -205 149
-164 148 -163 181 -160 31 3 43 17 142 153 l20 29 18 -154 c10 -85 24 -177 31
-203 8 -26 26 -148 40 -270 39 -339 104 -582 248 -929 130 -311 194 -559 212
-823 6 -99 8 -187 4 -196 -5 -10 12 -95 46 -225 94 -365 106 -477 79 -759 -24
-262 -25 -543 -1 -660 51 -251 148 -456 299 -632 101 -118 184 -178 323 -234
83 -33 183 -105 225 -161 l22 -31 -26 -121 c-14 -66 -30 -150 -36 -186 -14
-91 -24 -373 -16 -442 l7 -58 1950 0 1950 0 33 73 c18 40 48 113 66 162 31 81
44 104 60 105 3 0 44 -76 90 -170 l85 -170 1643 0 1644 0 -5 23 c-3 12 -15 62
-27 112 -17 72 -23 131 -27 290 l-5 200 36 150 c19 83 56 229 82 325 47 175
47 175 48 345 1 151 -2 185 -28 305 -50 240 -57 302 -66 650 -7 302 -11 348
-35 470 -25 128 -87 343 -106 366 -5 6 -13 105 -18 220 -10 243 -23 300 -115
501 -58 127 -71 179 -102 408 -19 144 -36 198 -149 465 -105 249 -206 526
-199 545 3 8 -12 61 -35 119 -47 121 -67 199 -111 416 -65 322 -99 442 -162
580 -48 103 -165 457 -183 553 -27 141 -29 141 93 31 160 -145 242 -193 458
-267 71 -24 152 -55 179 -69 28 -14 96 -38 152 -53 l102 -27 81 21 c99 25 208
81 323 166 48 36 140 90 205 121 134 63 202 121 302 259 127 175 184 344 211
630 15 158 22 616 10 661 -16 58 -62 123 -168 235 -103 109 -108 123 -78 209
36 101 11 185 -84 283 -33 34 -65 76 -71 92 -12 33 -9 93 17 290 23 174 14
381 -21 497 -58 194 -192 426 -343 596 l-90 100 -6 173 c-3 96 -12 224 -21
284 -20 148 -44 356 -50 430 -5 72 -33 139 -120 283 -35 59 -97 163 -137 232
-61 103 -93 144 -182 235 -60 61 -115 124 -122 140 -7 17 -18 59 -25 95 -6 36
-22 83 -35 105 -53 90 -205 207 -372 286 -105 50 -134 69 -215 144 -51 48
-115 99 -143 115 -68 39 -213 98 -308 125 -43 13 -115 44 -159 70 -64 37 -98
50 -160 60 -70 11 -84 17 -126 54 -87 76 -146 96 -470 160 -84 17 -192 45
-240 62 -48 17 -134 46 -192 65 -58 19 -123 44 -145 57 -42 24 -43 26 -124
197 -27 58 -100 181 -162 274 l-114 169 0 71 c0 69 3 77 81 237 l81 166 49 7
c179 24 282 75 352 171 20 28 57 73 82 101 55 61 70 106 70 205 1 75 10 97 52
124 117 75 188 157 222 259 20 58 20 93 0 176 -18 75 -12 119 17 146 36 32
145 195 187 280 68 133 85 214 78 363 -3 69 -8 155 -11 191 -3 36 -10 130 -16
209 -14 196 -34 267 -129 456 -85 167 -82 160 -131 430 -19 106 -70 185 -214
334 -313 322 -678 685 -760 756 -229 196 -427 274 -696 275 -69 0 -128 -2
-130 -4z m-699 -1045 c143 -49 310 -86 461 -102 91 -10 169 -10 365 -1 328 16
401 15 456 -4 50 -16 212 -145 271 -214 42 -50 101 -206 91 -244 -4 -17 0 -34
14 -53 74 -105 118 -427 97 -713 -8 -97 16 -352 40 -444 34 -130 106 -269 193
-372 43 -52 82 -63 154 -44 48 12 49 12 96 -26 26 -20 63 -53 83 -71 35 -33
36 -36 28 -81 -4 -26 -15 -94 -24 -151 -19 -117 -67 -236 -132 -325 -21 -28
-56 -87 -78 -130 -56 -110 -73 -122 -188 -119 -149 4 -168 -9 -218 -154 -10
-29 -48 -110 -84 -180 -37 -71 -86 -171 -111 -223 l-44 -95 -1 305 c-2 341 -1
331 -19 385 -26 81 -65 115 -151 134 -26 6 -362 11 -829 11 -776 2 -786 2
-841 -19 -69 -26 -97 -55 -107 -112 -4 -24 -5 -285 -1 -579 21 -1683 22 -1905
8 -1894 -8 6 -32 17 -54 24 -84 27 -113 70 -145 210 -7 30 -23 93 -36 140 -45
158 -53 243 -54 573 0 180 6 394 15 516 25 346 -4 497 -155 812 -27 57 -70
168 -96 247 -26 81 -51 142 -58 142 -7 0 -39 -9 -71 -20 -171 -59 -268 17
-340 265 -23 81 -26 105 -24 245 1 147 0 161 -30 260 -17 58 -31 125 -31 150
0 45 24 161 38 186 11 19 180 -187 249 -304 29 -48 56 -92 60 -99 5 -7 19 -10
35 -6 l28 5 -1 217 c0 284 23 499 61 572 10 18 12 18 35 3 88 -58 90 -257 4
-522 -22 -65 -20 -92 5 -92 56 0 183 307 207 502 14 118 7 237 -25 407 -25
131 -26 136 -10 200 20 80 58 158 132 270 38 58 57 79 62 70 23 -42 44 -183
44 -299 1 -106 -5 -155 -38 -323 -40 -199 -40 -226 -3 -211 31 12 75 128 133
349 90 345 96 378 90 480 -5 107 -38 218 -72 250 -31 29 -30 53 3 121 45 91
145 177 246 210 61 20 136 10 267 -35z m1189 -4615 c86 -19 197 -42 246 -51
50 -9 105 -21 124 -27 50 -16 109 -74 143 -142 17 -34 48 -85 70 -114 21 -29
46 -72 54 -95 8 -23 25 -58 38 -78 33 -49 77 -138 119 -239 71 -171 176 -377
236 -465 124 -179 156 -231 227 -374 40 -80 98 -184 130 -231 83 -124 327
-432 415 -525 41 -44 111 -125 155 -180 43 -55 152 -188 242 -295 190 -227
233 -288 412 -585 73 -121 146 -239 162 -263 38 -55 373 -420 490 -532 48 -47
88 -89 88 -95 0 -5 39 -46 86 -89 47 -44 101 -102 120 -130 18 -28 63 -128 98
-221 36 -94 81 -210 100 -260 27 -69 35 -105 36 -154 0 -59 -5 -72 -55 -166
-70 -131 -98 -240 -99 -385 l-1 -105 53 -115 c68 -149 165 -309 224 -371 36
-37 43 -51 33 -59 -7 -6 -16 -34 -19 -63 -4 -28 -38 -149 -76 -267 -38 -118
-80 -252 -93 -297 -14 -46 -44 -117 -68 -159 -43 -75 -43 -75 -78 -69 -182 34
-279 98 -651 426 -178 157 -244 228 -360 389 -46 63 -120 158 -165 210 -100
115 -150 178 -302 379 -126 167 -194 276 -219 356 -8 27 -19 59 -24 70 -5 11
-18 54 -30 95 -12 41 -42 122 -67 180 -25 57 -60 156 -78 220 -75 261 -87 298
-119 375 -19 44 -41 112 -50 150 -79 354 -116 458 -242 682 -52 92 -132 242
-178 333 -111 216 -130 237 -270 304 -61 29 -143 65 -182 80 -43 16 -92 44
-125 73 -63 54 -164 181 -189 238 -22 50 -97 120 -158 147 -100 45 -289 42
-432 -7 -86 -29 -148 -32 -197 -8 -64 30 -115 125 -99 186 18 75 203 197 296
197 66 0 221 29 248 46 51 33 54 101 5 123 -16 8 -127 34 -248 58 -188 38
-248 46 -415 55 -107 5 -246 10 -308 9 -61 0 -148 6 -193 14 -44 7 -87 11 -95
8 -25 -9 -101 27 -133 62 -34 39 -46 82 -37 131 8 39 34 67 91 97 38 20 54 21
300 19 189 -1 290 3 372 14 113 16 137 16 564 -2 145 -6 146 -6 163 17 20 29
21 91 2 127 -20 39 -52 66 -131 110 -38 21 -100 57 -136 80 -80 49 -144 69
-269 82 -52 5 -135 17 -185 25 -49 9 -184 20 -300 25 -115 4 -218 11 -228 15
-9 4 -24 2 -31 -4 -11 -9 -23 -8 -52 4 -74 31 -124 102 -127 180 -2 51 33 108
80 130 46 22 235 30 638 27 405 -3 435 -7 595 -81 130 -61 358 -151 382 -151
29 0 32 22 6 44 -14 12 -51 69 -82 127 -50 94 -56 112 -56 165 0 72 -14 89
-130 151 -133 72 -241 98 -460 112 -138 9 -220 26 -221 45 0 6 -19 25 -42 41
-54 40 -75 90 -58 145 14 49 48 68 139 81 56 8 66 7 77 -8 12 -16 17 -16 91 0
44 10 97 22 119 26 74 16 137 11 294 -23z m-952 -3443 c28 -18 55 -87 47 -118
-10 -42 -59 -75 -111 -75 -38 0 -50 5 -79 34 -25 25 -34 43 -34 68 0 40 32 95
63 108 27 11 84 2 114 -17z m-1880 -16 c25 -32 68 -42 96 -22 12 8 30 15 41
15 27 0 82 -37 107 -71 18 -26 19 -30 4 -35 -11 -5 -26 4 -45 25 -51 55 -136
36 -175 -40 -13 -23 -22 -29 -50 -29 -34 0 -34 0 -19 28 18 35 18 52 -2 80
-17 24 -52 29 -87 11 -36 -18 -147 -132 -147 -150 0 -15 -48 -34 -58 -24 -2 2
18 32 45 67 62 79 187 168 238 168 23 0 39 -7 52 -23z m-490 -2427 c17 -43 28
-97 33 -160 4 -55 17 -120 30 -155 45 -122 44 -115 21 -228 -37 -184 -46 -381
-26 -580 9 -95 27 -227 41 -294 31 -158 31 -204 -3 -295 -30 -79 -31 -106 -22
-468 l3 -145 -52 -202 c-32 -125 -56 -243 -63 -310 -6 -59 -26 -185 -45 -279
-19 -94 -39 -232 -44 -305 -6 -74 -15 -159 -21 -189 -11 -60 -87 -232 -99
-225 -5 3 -14 44 -20 92 -10 70 -11 126 -1 278 7 105 11 312 9 460 -3 242 -1
279 17 355 17 72 20 116 18 285 -1 175 0 198 13 181 8 -11 14 -24 14 -29 0 -4
10 -7 23 -5 25 3 25 5 17 363 l-5 190 38 88 c43 100 43 117 -1 208 -18 39 -41
66 -73 90 l-47 34 36 50 c20 27 58 75 85 105 79 91 100 134 105 220 5 95 -17
164 -99 312 -72 129 -79 158 -49 224 44 98 52 131 60 246 9 113 19 171 42 227
11 25 11 25 25 -24 8 -27 26 -79 40 -115z m2663 -1050 c38 -27 70 -81 70 -118
0 -56 -92 -106 -153 -83 -36 14 -72 69 -72 112 0 42 24 75 70 95 41 18 52 17
85 -6z m-3697 -644 c180 -43 300 -90 432 -167 113 -67 184 -119 273 -199 l62
-55 -11 -45 c-7 -31 -7 -69 0 -124 16 -116 14 -175 -13 -341 -23 -139 -25
-184 -29 -628 -5 -469 -5 -480 17 -578 13 -55 24 -129 25 -164 1 -35 6 -79 12
-97 5 -18 25 -116 44 -218 47 -253 83 -354 181 -508 19 -29 34 -55 34 -58 0
-3 22 -31 49 -62 65 -75 203 -311 258 -442 25 -58 70 -158 100 -223 68 -145
76 -203 43 -298 -31 -89 -35 -152 -16 -233 9 -38 13 -73 9 -77 -8 -8 -110 10
-193 34 l-45 13 -3 64 c-2 36 2 109 9 163 9 74 10 100 1 109 -50 50 -81 -240
-46 -423 29 -155 129 -386 221 -510 24 -33 43 -63 43 -68 0 -5 30 -31 68 -57
140 -100 182 -156 167 -224 -9 -42 -31 -50 -137 -50 -98 0 -163 17 -327 85
-87 37 -143 37 -181 0 -39 -38 -98 -43 -170 -16 -75 29 -89 27 -96 -9 l-6 -29
-58 47 c-35 28 -100 65 -162 91 -117 50 -182 96 -267 186 -192 206 -292 435
-331 763 -12 93 -3 336 20 557 23 217 6 389 -65 668 -33 133 -46 207 -55 318
-6 79 -15 194 -20 254 -10 122 -68 368 -124 530 -19 55 -66 178 -105 273 -126
306 -187 540 -221 842 -11 102 -29 230 -40 285 -19 97 -62 416 -76 563 -5 58
-4 72 7 73 8 0 82 7 164 14 234 21 381 13 558 -29z m3872 -1128 c56 -66 53
-143 -7 -193 -73 -61 -168 0 -168 109 0 54 35 101 83 114 43 11 63 5 92 -30z
m120 -1690 c60 -47 71 -129 25 -182 -75 -84 -174 -54 -196 61 -19 102 94 182
171 121z"/>
</g>
</svg>
